<svg xmlns="http://www.w3.org/2000/svg" xmlns:xlink="http://www.w3.org/1999/xlink" width="1890" zoomAndPan="magnify" viewBox="0 0 1417.5 490.499985" height="654" preserveAspectRatio="xMidYMid meet" version="1.0"><defs><g/><clipPath id="a36b64173c"><path d="M 0.472656 0 L 1416.527344 0 L 1416.527344 490 L 0.472656 490 Z M 0.472656 0 " clip-rule="nonzero"/></clipPath><clipPath id="d489954cc4"><path d="M 1166 87 L 1367.332031 87 L 1367.332031 403.824219 L 1166 403.824219 Z M 1166 87 " clip-rule="nonzero"/></clipPath><clipPath id="62ac0d9070"><path d="M 0.472656 0 L 339.707031 0 L 339.707031 490 L 0.472656 490 Z M 0.472656 0 " clip-rule="nonzero"/></clipPath></defs><g clip-path="url(#a36b64173c)"><path fill="#ffffff" d="M 0.472656 0 L 1416.527344 0 L 1416.527344 490 L 0.472656 490 Z M 0.472656 0 " fill-opacity="1" fill-rule="nonzero"/><path fill="#f5f0ec" d="M 0.472656 0 L 1416.527344 0 L 1416.527344 490 L 0.472656 490 Z M 0.472656 0 " fill-opacity="1" fill-rule="nonzero"/></g><g fill="#5c9164" fill-opacity="1"><g transform="translate(333.410535, 221.413907)"><g><path d="M 28.820312 0 L 52.855469 0 L 52.855469 -61.347656 L 78.328125 -61.347656 L 78.328125 -83.710938 L 3.347656 -83.710938 L 3.347656 -61.347656 L 28.820312 -61.347656 Z M 28.820312 0 "/></g></g></g><g fill="#5c9164" fill-opacity="1"><g transform="translate(415.087146, 221.413907)"><g><path d="M 58.835938 0 L 82.992188 0 L 82.992188 -83.710938 L 58.835938 -83.710938 L 58.835938 -53.695312 L 33.003906 -53.695312 L 33.003906 -83.710938 L 8.847656 -83.710938 L 8.847656 0 L 33.003906 0 L 33.003906 -31.449219 L 58.835938 -31.449219 Z M 58.835938 0 "/></g></g></g><g fill="#5c9164" fill-opacity="1"><g transform="translate(506.928487, 221.413907)"><g><path d="M 0.597656 0 L 26.1875 0 L 30.734375 -11.839844 L 59.316406 -11.839844 L 63.859375 0 L 89.570312 0 L 57.042969 -83.710938 L 33.125 -83.710938 Z M 35.757812 -29.539062 L 45.082031 -55.488281 L 54.410156 -29.539062 Z M 35.757812 -29.539062 "/></g></g></g><g fill="#5c9164" fill-opacity="1"><g transform="translate(597.095626, 221.413907)"><g><path d="M 8.847656 0 L 32.765625 0 L 32.765625 -42.691406 L 64.578125 0 L 84.1875 0 L 84.1875 -83.710938 L 60.390625 -83.710938 L 60.390625 -41.257812 L 28.582031 -83.710938 L 8.847656 -83.710938 Z M 8.847656 0 "/></g></g></g><g fill="#5c9164" fill-opacity="1"><g transform="translate(690.252406, 221.413907)"><g><path d="M 8.847656 0 L 33.003906 0 L 33.003906 -31.691406 L 43.527344 -31.691406 L 59.554688 0 L 87.535156 0 L 65.53125 -40.660156 C 68.042969 -43.648438 70.316406 -47.59375 72.230469 -52.5 L 84.667969 -83.710938 L 58.476562 -83.710938 L 50.945312 -62.78125 C 48.433594 -55.488281 45.683594 -53.695312 37.070312 -53.695312 L 33.003906 -53.695312 L 33.003906 -83.710938 L 8.847656 -83.710938 Z M 8.847656 0 "/></g></g></g><g fill="#5c9164" fill-opacity="1"><g transform="translate(780.658723, 221.413907)"><g/></g></g><g fill="#5c9164" fill-opacity="1"><g transform="translate(808.282875, 221.413907)"><g><path d="M 31.09375 0 L 55.128906 0 L 55.128906 -29.179688 L 85.625 -83.710938 L 58.238281 -83.710938 L 43.050781 -53.695312 L 36.59375 -66.371094 L 27.742188 -83.710938 L 0.597656 -83.710938 L 31.09375 -29.058594 Z M 31.09375 0 "/></g></g></g><g fill="#5c9164" fill-opacity="1"><g transform="translate(894.503709, 221.413907)"><g><path d="M 49.628906 1.792969 C 76.296875 1.792969 95.191406 -16.261719 95.191406 -41.855469 C 95.191406 -67.445312 76.296875 -85.503906 49.628906 -85.503906 C 22.960938 -85.503906 4.066406 -67.445312 4.066406 -41.855469 C 4.066406 -16.261719 22.960938 1.792969 49.628906 1.792969 Z M 28.582031 -41.855469 C 28.582031 -54.410156 37.3125 -63.140625 49.628906 -63.140625 C 62.066406 -63.140625 70.675781 -54.410156 70.675781 -41.855469 C 70.675781 -29.296875 62.066406 -20.570312 49.628906 -20.570312 C 37.3125 -20.570312 28.582031 -29.296875 28.582031 -41.855469 Z M 28.582031 -41.855469 "/></g></g></g><g fill="#5c9164" fill-opacity="1"><g transform="translate(993.878889, 221.413907)"><g><path d="M 44.84375 1.792969 C 67.445312 1.792969 81.4375 -11.957031 81.4375 -34.441406 L 81.4375 -83.710938 L 57.402344 -83.710938 L 57.402344 -35.996094 C 57.402344 -26.070312 53.214844 -20.808594 44.84375 -20.808594 C 36.472656 -20.808594 32.289062 -26.070312 32.289062 -35.996094 L 32.289062 -83.710938 L 8.132812 -83.710938 L 8.132812 -34.441406 C 8.132812 -11.957031 22.242188 1.792969 44.84375 1.792969 Z M 44.84375 1.792969 "/></g></g></g><g fill="#5c9164" fill-opacity="1"><g transform="translate(272.605331, 357.774895)"><g><path d="M 6.652344 0 L 24.636719 0 L 24.636719 -32.097656 L 48.550781 0 L 63.296875 0 L 63.296875 -62.9375 L 45.402344 -62.9375 L 45.402344 -31.019531 L 21.488281 -62.9375 L 6.652344 -62.9375 Z M 6.652344 0 "/></g></g></g><g fill="#5c9164" fill-opacity="1"><g transform="translate(343.103778, 357.774895)"><g><path d="M 30.480469 1.347656 C 46.933594 1.347656 58.082031 -8.8125 58.082031 -23.824219 C 58.082031 -38.75 46.933594 -48.910156 30.480469 -48.910156 C 13.9375 -48.910156 2.789062 -38.75 2.789062 -23.824219 C 2.789062 -8.8125 13.9375 1.347656 30.480469 1.347656 Z M 19.691406 -23.824219 C 19.691406 -30.121094 24.183594 -34.613281 30.480469 -34.613281 C 36.773438 -34.613281 41.179688 -30.121094 41.179688 -23.824219 C 41.179688 -17.441406 36.773438 -12.945312 30.480469 -12.945312 C 24.183594 -12.945312 19.691406 -17.441406 19.691406 -23.824219 Z M 19.691406 -23.824219 "/></g></g></g><g fill="#5c9164" fill-opacity="1"><g transform="translate(404.421215, 357.774895)"><g><path d="M 6.023438 0 L 23.285156 0 L 23.285156 -25.625 C 23.285156 -31.378906 26.253906 -34.613281 31.019531 -34.613281 C 35.605469 -34.613281 38.300781 -31.648438 38.300781 -26.074219 L 38.300781 0 L 55.5625 0 L 55.5625 -27.871094 C 55.5625 -40.726562 47.921875 -48.910156 35.695312 -48.910156 C 29.308594 -48.910156 23.734375 -46.664062 20.230469 -42.707031 L 18.429688 -47.5625 L 6.023438 -47.5625 Z M 6.023438 0 "/></g></g></g><g fill="#5c9164" fill-opacity="1"><g transform="translate(465.55883, 357.774895)"><g><path d="M 30.210938 0 L 39.828125 0 L 39.828125 -14.566406 L 34.882812 -14.566406 C 29.847656 -14.566406 27.511719 -16.8125 27.511719 -21.757812 L 27.511719 -33.984375 L 39.199219 -33.984375 L 39.199219 -47.5625 L 27.511719 -47.5625 L 27.511719 -60.058594 L 14.117188 -60.058594 L 13.214844 -53.855469 C 12.496094 -48.910156 11.148438 -47.5625 5.753906 -47.5625 L 1.4375 -47.5625 L 1.4375 -33.984375 L 10.25 -33.984375 L 10.25 -18.429688 C 10.25 -6.382812 17.171875 0 30.210938 0 Z M 30.210938 0 "/></g></g></g><g fill="#5c9164" fill-opacity="1"><g transform="translate(509.344149, 357.774895)"><g><path d="M 21.847656 1.078125 C 28.679688 1.078125 34.433594 -1.167969 38.480469 -5.214844 L 40.367188 0 L 52.777344 0 L 52.777344 -27.691406 C 52.777344 -41.269531 44.234375 -48.910156 28.949219 -48.910156 C 15.644531 -48.910156 7.640625 -42.886719 6.203125 -31.917969 L 22.386719 -31.917969 C 22.835938 -34.703125 25.535156 -36.59375 29.039062 -36.59375 C 32.90625 -36.59375 35.964844 -34.34375 35.964844 -31.199219 L 35.964844 -28.5 L 19.960938 -28.5 C 10.160156 -28.5 3.867188 -22.65625 3.867188 -13.9375 C 3.867188 -4.675781 10.878906 1.078125 21.847656 1.078125 Z M 20.769531 -14.746094 C 20.769531 -17.441406 23.105469 -19.0625 26.792969 -19.0625 L 36.144531 -19.0625 C 36.144531 -13.847656 32.1875 -10.339844 26.972656 -10.339844 C 23.285156 -10.339844 20.769531 -12.046875 20.769531 -14.746094 Z M 20.769531 -14.746094 "/></g></g></g><g fill="#5c9164" fill-opacity="1"><g transform="translate(567.694599, 357.774895)"><g><path d="M 36.683594 1.347656 C 51.066406 1.347656 61.046875 -8.902344 61.046875 -23.824219 C 61.046875 -38.570312 51.066406 -48.910156 36.683594 -48.910156 C 30.03125 -48.910156 24.363281 -46.664062 20.230469 -42.796875 L 18.429688 -47.5625 L 6.023438 -47.5625 L 6.023438 17.980469 L 23.285156 17.980469 L 23.285156 -2.335938 C 26.972656 0 31.558594 1.347656 36.683594 1.347656 Z M 22.65625 -23.824219 C 22.65625 -30.121094 26.972656 -34.613281 33.355469 -34.613281 C 39.738281 -34.613281 44.054688 -30.121094 44.054688 -23.824219 C 44.054688 -17.441406 39.738281 -12.945312 33.355469 -12.945312 C 26.972656 -12.945312 22.65625 -17.441406 22.65625 -23.824219 Z M 22.65625 -23.824219 "/></g></g></g><g fill="#5c9164" fill-opacity="1"><g transform="translate(631.97901, 357.774895)"><g><path d="M 6.023438 0 L 23.285156 0 L 23.285156 -25.625 C 23.285156 -31.378906 26.253906 -34.613281 31.019531 -34.613281 C 35.605469 -34.613281 38.300781 -31.648438 38.300781 -26.074219 L 38.300781 0 L 55.5625 0 L 55.5625 -27.871094 C 55.5625 -40.820312 48.101562 -48.910156 36.054688 -48.910156 C 31.109375 -48.910156 26.613281 -47.472656 23.285156 -44.863281 L 23.285156 -66.53125 L 6.023438 -66.53125 Z M 6.023438 0 "/></g></g></g><g fill="#5c9164" fill-opacity="1"><g transform="translate(693.11662, 357.774895)"><g><path d="M 21.847656 1.078125 C 28.679688 1.078125 34.433594 -1.167969 38.480469 -5.214844 L 40.367188 0 L 52.777344 0 L 52.777344 -27.691406 C 52.777344 -41.269531 44.234375 -48.910156 28.949219 -48.910156 C 15.644531 -48.910156 7.640625 -42.886719 6.203125 -31.917969 L 22.386719 -31.917969 C 22.835938 -34.703125 25.535156 -36.59375 29.039062 -36.59375 C 32.90625 -36.59375 35.964844 -34.34375 35.964844 -31.199219 L 35.964844 -28.5 L 19.960938 -28.5 C 10.160156 -28.5 3.867188 -22.65625 3.867188 -13.9375 C 3.867188 -4.675781 10.878906 1.078125 21.847656 1.078125 Z M 20.769531 -14.746094 C 20.769531 -17.441406 23.105469 -19.0625 26.792969 -19.0625 L 36.144531 -19.0625 C 36.144531 -13.847656 32.1875 -10.339844 26.972656 -10.339844 C 23.285156 -10.339844 20.769531 -12.046875 20.769531 -14.746094 Z M 20.769531 -14.746094 "/></g></g></g><g fill="#5c9164" fill-opacity="1"><g transform="translate(751.467094, 357.774895)"><g><path d="M 30.210938 0 L 39.828125 0 L 39.828125 -14.566406 L 34.882812 -14.566406 C 29.847656 -14.566406 27.511719 -16.8125 27.511719 -21.757812 L 27.511719 -33.984375 L 39.199219 -33.984375 L 39.199219 -47.5625 L 27.511719 -47.5625 L 27.511719 -60.058594 L 14.117188 -60.058594 L 13.214844 -53.855469 C 12.496094 -48.910156 11.148438 -47.5625 5.753906 -47.5625 L 1.4375 -47.5625 L 1.4375 -33.984375 L 10.25 -33.984375 L 10.25 -18.429688 C 10.25 -6.382812 17.171875 0 30.210938 0 Z M 30.210938 0 "/></g></g></g><g fill="#5c9164" fill-opacity="1"><g transform="translate(795.252413, 357.774895)"><g/></g></g><g fill="#5c9164" fill-opacity="1"><g transform="translate(816.470741, 357.774895)"><g><path d="M 6.652344 0 L 24.636719 0 L 24.636719 -31.917969 L 36.773438 -14.925781 L 48.550781 -14.925781 L 60.597656 -31.828125 L 60.597656 0 L 78.578125 0 L 78.578125 -62.9375 L 63.835938 -62.9375 L 42.617188 -32.996094 L 21.488281 -62.9375 L 6.652344 -62.9375 Z M 6.652344 0 "/></g></g></g><g fill="#5c9164" fill-opacity="1"><g transform="translate(902.15329, 357.774895)"><g><path d="M 29.667969 1.347656 C 41.988281 1.347656 51.425781 -4.765625 55.652344 -15.375 L 38.929688 -15.375 C 37.042969 -13.125 33.714844 -11.6875 30.03125 -11.6875 C 25.175781 -11.6875 21.128906 -14.296875 19.871094 -19.511719 L 56.550781 -19.511719 C 57.453125 -37.222656 46.753906 -48.910156 29.757812 -48.910156 C 13.847656 -48.910156 2.789062 -38.660156 2.789062 -23.824219 C 2.789062 -8.902344 13.757812 1.347656 29.667969 1.347656 Z M 19.960938 -28.859375 C 21.398438 -33.445312 25.175781 -35.964844 29.941406 -35.964844 C 35.152344 -35.964844 38.660156 -33.265625 40.097656 -28.859375 Z M 19.960938 -28.859375 "/></g></g></g><g fill="#5c9164" fill-opacity="1"><g transform="translate(961.85238, 357.774895)"><g><path d="M 29.667969 1.347656 C 41.988281 1.347656 51.425781 -4.765625 55.652344 -15.375 L 38.929688 -15.375 C 37.042969 -13.125 33.714844 -11.6875 30.03125 -11.6875 C 25.175781 -11.6875 21.128906 -14.296875 19.871094 -19.511719 L 56.550781 -19.511719 C 57.453125 -37.222656 46.753906 -48.910156 29.757812 -48.910156 C 13.847656 -48.910156 2.789062 -38.660156 2.789062 -23.824219 C 2.789062 -8.902344 13.757812 1.347656 29.667969 1.347656 Z M 19.960938 -28.859375 C 21.398438 -33.445312 25.175781 -35.964844 29.941406 -35.964844 C 35.152344 -35.964844 38.660156 -33.265625 40.097656 -28.859375 Z M 19.960938 -28.859375 "/></g></g></g><g fill="#5c9164" fill-opacity="1"><g transform="translate(1021.551469, 357.774895)"><g><path d="M 24.816406 1.347656 C 38.300781 1.347656 46.304688 -4.316406 46.304688 -13.847656 C 46.304688 -21.9375 40.726562 -26.882812 29.128906 -29.128906 C 21.9375 -30.480469 19.871094 -31.648438 19.871094 -33.984375 C 19.871094 -36.054688 21.578125 -37.222656 24.09375 -37.222656 C 27.242188 -37.222656 29.039062 -35.605469 29.21875 -32.726562 L 45.582031 -32.726562 C 44.953125 -43.246094 37.582031 -48.910156 24.273438 -48.910156 C 10.699219 -48.910156 3.328125 -43.605469 3.328125 -33.984375 C 3.328125 -25.894531 8.542969 -21.21875 20.410156 -18.96875 C 26.703125 -17.710938 29.308594 -16.183594 29.308594 -13.9375 C 29.308594 -11.867188 27.691406 -10.609375 24.996094 -10.609375 C 21.847656 -10.609375 19.78125 -12.585938 19.78125 -15.464844 L 2.878906 -15.464844 C 2.878906 -5.304688 11.507812 1.347656 24.816406 1.347656 Z M 24.816406 1.347656 "/></g></g></g><g fill="#5c9164" fill-opacity="1"><g transform="translate(1071.360631, 357.774895)"><g><path d="M 6.023438 0 L 23.285156 0 L 23.285156 -20.320312 C 23.285156 -28.410156 26.792969 -32.097656 34.523438 -32.097656 L 40.007812 -32.097656 L 40.007812 -47.5625 L 34.433594 -47.5625 C 27.78125 -47.5625 23.554688 -45.761719 20.589844 -41.628906 L 18.429688 -47.5625 L 6.023438 -47.5625 Z M 6.023438 0 "/></g></g></g><g fill="#5c9164" fill-opacity="1"><g transform="translate(1114.606523, 357.774895)"><g><path d="M 6.023438 0 L 23.285156 0 L 23.285156 -47.5625 L 6.023438 -47.5625 Z M 4.316406 -63.835938 C 4.316406 -57.902344 8.632812 -53.765625 14.65625 -53.765625 C 20.679688 -53.765625 24.996094 -57.902344 24.996094 -63.835938 C 24.996094 -69.769531 20.679688 -73.816406 14.65625 -73.816406 C 8.632812 -73.816406 4.316406 -69.769531 4.316406 -63.835938 Z M 4.316406 -63.835938 "/></g></g></g><g clip-path="url(#d489954cc4)"><path fill="#000000" d="M 1366.714844 306.1875 C 1366.484375 311.589844 1366.277344 317.007812 1365.96875 322.398438 C 1365.777344 325.855469 1365.441406 329.300781 1365.144531 332.746094 C 1364.9375 335.21875 1364.730469 337.695312 1364.449219 340.160156 C 1363.84375 345.628906 1363.222656 351.085938 1362.554688 356.539062 C 1361.960938 361.378906 1361.277344 366.214844 1360.683594 371.050781 C 1360.183594 375.101562 1359.5 379.113281 1358.507812 383.085938 C 1358.402344 383.511719 1358.261719 383.9375 1358.109375 384.347656 C 1357.734375 385.378906 1357.191406 385.820312 1356.507812 385.703125 C 1356.445312 385.933594 1356.378906 386.167969 1356.316406 386.398438 C 1356.871094 386.875 1357.101562 387.636719 1357.476562 388.257812 C 1358.273438 389.574219 1358.570312 391.042969 1358.714844 392.566406 C 1358.933594 395.027344 1358.042969 396.910156 1355.8125 398.058594 C 1354.796875 398.574219 1353.738281 399.050781 1352.65625 399.453125 C 1348.3125 401.039062 1343.828125 402.03125 1339.242188 402.652344 C 1334.589844 403.28125 1329.925781 403.863281 1325.207031 403.644531 C 1323.351562 403.554688 1321.484375 403.375 1319.679688 403.011719 C 1317.386719 402.5625 1315.257812 401.65625 1313.855469 399.492188 C 1313.042969 399.699219 1312.28125 399.863281 1311.535156 400.070312 C 1305.644531 401.65625 1299.640625 401.929688 1293.597656 401.492188 C 1291.558594 401.347656 1289.574219 400.792969 1287.730469 399.863281 C 1283.609375 397.789062 1282.796875 394.074219 1285.644531 390.410156 C 1286.855469 388.851562 1288.402344 387.652344 1289.976562 386.503906 C 1290.617188 386.039062 1291.289062 385.613281 1292.0625 385.097656 C 1292.089844 384.4375 1292.179688 383.753906 1292.152344 383.058594 C 1291.832031 374.109375 1291.507812 365.15625 1291.148438 356.191406 C 1290.941406 350.957031 1290.695312 345.734375 1290.425781 340.507812 C 1290.179688 335.8125 1289.871094 331.117188 1289.589844 326.425781 C 1289.367188 322.785156 1289.203125 319.164062 1288.96875 315.527344 C 1288.582031 309.335938 1288.210938 303.128906 1287.746094 296.941406 C 1287.488281 293.496094 1287.023438 290.066406 1286.738281 286.609375 C 1286.625 285.113281 1286.714844 283.601562 1286.714844 281.914062 C 1286.328125 281.511719 1285.914062 280.90625 1285.347656 280.546875 C 1282.9375 279 1280.863281 277.0625 1278.917969 275 C 1273.015625 268.746094 1267.191406 262.410156 1261.90625 255.601562 C 1258.867188 251.667969 1256.6875 247.410156 1255.761719 242.496094 C 1255.089844 238.925781 1254.136719 235.402344 1253.492188 231.832031 C 1252.925781 228.695312 1252.601562 225.511719 1252.175781 222.351562 C 1252.074219 221.578125 1252.175781 220.75 1251.480469 219.953125 C 1251.054688 220.054688 1250.566406 220.144531 1250.089844 220.300781 C 1245.941406 221.589844 1241.75 222.648438 1237.433594 223.265625 C 1232.449219 223.976562 1227.550781 223.523438 1222.640625 222.621094 C 1210.667969 220.417969 1198.324219 212.328125 1191.867188 203.570312 C 1190.875 202.21875 1189.933594 200.8125 1189.03125 199.390625 C 1188.21875 198.128906 1187.496094 196.8125 1186.800781 195.640625 C 1182.882812 194.296875 1180.101562 191.742188 1177.78125 188.660156 C 1174.882812 184.804688 1172.859375 180.457031 1171.222656 175.945312 C 1169.238281 170.421875 1167.832031 164.761719 1167.007812 158.945312 C 1166.132812 152.84375 1166.027344 146.742188 1166.609375 140.628906 C 1166.996094 136.566406 1167.511719 132.503906 1168.734375 128.609375 C 1169.339844 126.675781 1170.203125 124.816406 1171.042969 122.960938 C 1171.363281 122.25 1171.890625 121.59375 1172.457031 121.050781 C 1172.882812 120.652344 1173.488281 120.355469 1174.058594 120.199219 C 1174.339844 120.121094 1174.609375 120.160156 1174.855469 120.261719 C 1175.5 119.375 1176.195312 118.507812 1176.929688 117.683594 C 1176.929688 117.671875 1176.917969 117.660156 1176.917969 117.644531 C 1176.710938 117 1176.390625 116.328125 1177.097656 115.59375 C 1177.535156 115.773438 1177.910156 116.007812 1178.230469 116.292969 C 1178.566406 115.941406 1178.902344 115.609375 1179.25 115.273438 C 1179.058594 114.976562 1178.964844 114.628906 1179.070312 114.316406 C 1179.09375 114.242188 1179.171875 114.164062 1179.25 114.136719 C 1179.6875 113.957031 1180.023438 114.085938 1180.308594 114.304688 C 1181.210938 113.492188 1182.136719 112.71875 1183.089844 111.96875 C 1183.050781 111.710938 1183.117188 111.429688 1183.230469 111.15625 C 1183.414062 110.757812 1183.632812 110.34375 1183.941406 110.035156 C 1184.996094 108.964844 1185.976562 107.777344 1187.1875 106.914062 C 1189.714844 105.109375 1192.277344 103.355469 1194.972656 101.820312 C 1199.984375 98.980469 1205.191406 96.503906 1210.515625 94.300781 C 1217.757812 91.292969 1225.296875 89.308594 1233.015625 88.136719 C 1246.3125 86.148438 1258.929688 88.25 1270.617188 95.230469 C 1278.285156 99.808594 1284.535156 105.871094 1289.601562 113.183594 C 1294.511719 120.261719 1297.976562 127.988281 1299.742188 136.425781 C 1301.097656 142.886719 1301.378906 149.414062 1300.785156 156.015625 C 1300.324219 161.085938 1299.214844 165.988281 1297.824219 170.847656 C 1297.707031 171.261719 1297.589844 171.660156 1297.5 172.023438 C 1297.679688 172.164062 1297.757812 172.269531 1297.808594 172.269531 C 1300.839844 171.777344 1303.816406 172.191406 1306.765625 172.835938 C 1308.402344 173.195312 1310.039062 173.636719 1311.664062 174.046875 C 1319.847656 176.136719 1326.855469 180.289062 1332.914062 186.132812 C 1337.589844 190.660156 1341.507812 195.820312 1344.976562 201.300781 C 1353.015625 214.042969 1358.351562 227.871094 1361.085938 242.679688 C 1361.730469 246.171875 1362.21875 249.695312 1361.675781 253.253906 C 1361.523438 254.285156 1361.804688 255.164062 1362.269531 256.054688 C 1363.03125 257.496094 1363.457031 258.992188 1362.890625 260.65625 C 1362.746094 261.097656 1362.902344 261.714844 1363.109375 262.167969 C 1363.558594 263.222656 1364.152344 264.21875 1364.640625 265.261719 C 1365.828125 267.765625 1366.546875 270.371094 1366.691406 273.179688 C 1367.21875 284.195312 1367.191406 295.183594 1366.714844 306.1875 Z M 1366.714844 306.1875 " fill-opacity="1" fill-rule="nonzero"/></g><path fill="#ffffff" d="M 1357.375 245.890625 C 1355.644531 234.773438 1352.257812 224.167969 1347.308594 214.070312 C 1343.351562 205.984375 1338.519531 198.464844 1332.5 191.757812 C 1329.523438 188.441406 1326.199219 185.515625 1322.410156 183.167969 C 1314.9375 178.550781 1306.664062 176.433594 1298.027344 175.53125 C 1297.4375 175.46875 1296.832031 175.632812 1296.1875 175.699219 C 1295.800781 176.589844 1295.453125 177.402344 1295.117188 178.214844 C 1293.558594 181.902344 1291.726562 185.4375 1289.332031 188.660156 C 1288.003906 190.453125 1286.519531 192.09375 1284.640625 193.332031 C 1284.136719 193.652344 1283.710938 194.128906 1283.324219 194.59375 C 1282.152344 196.039062 1281.003906 197.507812 1279.859375 198.96875 C 1279.484375 199.445312 1279.109375 199.921875 1278.738281 200.398438 C 1279.972656 201.441406 1281.09375 202.410156 1282.332031 203.46875 C 1282.769531 202.796875 1283.234375 202.152344 1283.632812 201.46875 C 1285.140625 198.851562 1286.574219 196.207031 1288.117188 193.613281 C 1288.890625 192.324219 1289.808594 191.136719 1290.722656 189.953125 C 1290.863281 189.769531 1291.378906 189.769531 1291.6875 189.859375 C 1291.855469 189.914062 1292.050781 190.273438 1292.050781 190.503906 C 1292.0625 192.222656 1291.597656 193.847656 1290.734375 195.316406 C 1289.5625 197.304688 1288.339844 199.25 1287.101562 201.199219 C 1286.003906 202.914062 1284.9375 204.65625 1283.375 205.765625 C 1283.464844 207.722656 1283.53125 209.492188 1283.621094 211.296875 C 1283.878906 211.515625 1284.125 211.773438 1284.40625 211.953125 C 1289.976562 215.695312 1294.691406 220.363281 1299.035156 225.433594 C 1302.898438 229.960938 1306.417969 234.734375 1309.277344 239.980469 C 1309.574219 240.535156 1309.769531 241.246094 1310.722656 241.53125 C 1310.554688 239.59375 1310.386719 237.839844 1310.257812 236.074219 C 1309.988281 232.5 1309.175781 229.070312 1307.746094 225.792969 C 1306.160156 222.132812 1304.433594 218.53125 1302.371094 215.113281 C 1301.40625 213.515625 1300.515625 211.890625 1299.625 210.253906 C 1299.382812 209.800781 1299.253906 209.273438 1299.097656 208.769531 C 1299.019531 208.5 1299.523438 208.113281 1299.808594 208.175781 C 1300.734375 208.394531 1301.289062 209.105469 1301.894531 209.75 C 1306.613281 214.832031 1309.921875 220.75 1312.332031 227.214844 C 1312.773438 228.375 1313.054688 229.585938 1313.339844 230.785156 C 1314.175781 234.253906 1314.28125 237.800781 1314.589844 241.335938 C 1315.105469 247.128906 1314.664062 252.867188 1313.800781 258.566406 C 1313.542969 260.296875 1312.796875 261.960938 1312.164062 263.597656 C 1311.921875 264.230469 1311.429688 264.8125 1310.929688 265.300781 C 1310.734375 265.496094 1310.363281 265.648438 1310.050781 265.660156 C 1309.742188 266.359375 1309.40625 267.027344 1308.996094 267.648438 C 1310.644531 267.234375 1312.292969 267.378906 1313.957031 267.636719 C 1314.574219 267.726562 1315.179688 267.828125 1315.785156 267.945312 C 1319.1875 268.617188 1322.527344 269.492188 1325.632812 271.078125 C 1327.039062 271.789062 1328.363281 272.652344 1330.015625 273.621094 C 1330.273438 272.898438 1330.453125 272.40625 1330.605469 271.90625 C 1331.394531 269.261719 1332.257812 266.667969 1333.789062 264.332031 C 1334.175781 263.742188 1334.421875 263.070312 1334.71875 262.425781 C 1337.847656 255.703125 1339.835938 248.648438 1340.941406 241.335938 C 1341.652344 236.640625 1341.714844 232 1340.53125 227.34375 C 1339.265625 222.429688 1337.589844 217.667969 1335.554688 213.050781 C 1331.921875 204.835938 1327.023438 197.523438 1319.921875 191.847656 C 1319.511719 191.511719 1319.085938 191.1875 1318.726562 190.800781 C 1318.363281 190.414062 1318.042969 189.976562 1317.796875 189.527344 C 1317.371094 188.75 1317.824219 187.796875 1318.710938 187.71875 C 1319.382812 187.667969 1320.179688 187.695312 1320.761719 188.003906 C 1322.152344 188.75 1323.546875 189.5625 1324.78125 190.558594 C 1327.21875 192.503906 1329.253906 194.851562 1331.148438 197.328125 C 1337.847656 206.0625 1341.921875 216.019531 1344.640625 226.582031 C 1345.386719 229.496094 1345.957031 232.5 1345.671875 235.53125 C 1345.039062 242.355469 1343.828125 249.050781 1341.265625 255.445312 C 1341.058594 255.976562 1340.699219 256.503906 1340.890625 257.277344 C 1343.828125 256.671875 1346.636719 255.949219 1349.449219 255.214844 C 1352.335938 254.464844 1355.285156 253.964844 1358.054688 252.90625 C 1358.261719 250.417969 1357.722656 248.148438 1357.375 245.890625 Z M 1311.960938 188.492188 C 1311.277344 188.660156 1310.582031 188.878906 1309.886719 188.855469 C 1306.742188 188.777344 1304.265625 190.234375 1302.011719 192.195312 C 1301.277344 192.828125 1300.566406 193.5 1299.742188 194.257812 C 1299.472656 193.9375 1299.265625 193.808594 1299.265625 193.679688 C 1299.265625 193.433594 1299.292969 193.136719 1299.433594 192.929688 C 1301.328125 190.171875 1303.632812 187.914062 1306.871094 186.777344 C 1308.339844 186.261719 1309.832031 186.300781 1311.300781 186.804688 C 1311.625 186.921875 1311.90625 187.140625 1312.179688 187.359375 C 1312.488281 187.628906 1312.347656 188.402344 1311.960938 188.492188 Z M 1318.878906 261.316406 C 1319.898438 261.496094 1320.789062 261.574219 1321.625 261.820312 C 1323.480469 262.359375 1325.324219 262.925781 1327.128906 263.609375 C 1328.003906 263.945312 1328.789062 264.539062 1329.589844 265.070312 C 1329.742188 265.171875 1329.796875 265.570312 1329.730469 265.765625 C 1329.667969 265.957031 1329.371094 266.230469 1329.191406 266.214844 C 1328.234375 266.164062 1327.257812 266.152344 1326.339844 265.894531 C 1324.136719 265.300781 1321.972656 264.554688 1319.78125 263.90625 C 1319.035156 263.6875 1318.261719 263.546875 1317.5 263.480469 C 1317.089844 263.445312 1316.816406 263.339844 1316.6875 262.992188 C 1316.496094 262.488281 1316.753906 261.804688 1317.230469 261.652344 C 1317.808594 261.496094 1318.414062 261.417969 1318.878906 261.316406 Z M 1302.976562 267.273438 C 1302.476562 267.726562 1301.613281 267.765625 1301.210938 267.195312 C 1300.710938 266.476562 1300.347656 265.660156 1299.988281 264.863281 C 1296.960938 258.15625 1294.058594 251.398438 1290.890625 244.753906 C 1287.71875 238.113281 1284.34375 231.574219 1280.578125 225.253906 C 1278.996094 222.597656 1277.332031 220.003906 1275.800781 217.539062 C 1273.878906 217.152344 1272.074219 216.792969 1269.882812 216.351562 C 1268.53125 216.804688 1266.792969 217.449219 1265.011719 217.964844 C 1264.1875 218.210938 1263.285156 218.238281 1262.410156 218.25 C 1262.191406 218.25 1261.867188 217.847656 1261.753906 217.566406 C 1261.6875 217.398438 1261.855469 216.984375 1262.035156 216.882812 C 1262.71875 216.496094 1263.441406 216.148438 1264.175781 215.851562 C 1265.8125 215.207031 1267.460938 214.585938 1269.292969 213.890625 C 1268.777344 212.714844 1268.542969 211.621094 1267.847656 210.574219 C 1265.464844 213.027344 1262.691406 214.753906 1259.742188 216.222656 C 1258.390625 216.894531 1257.011719 217.5 1255.65625 218.160156 C 1255.207031 218.378906 1254.78125 218.660156 1254.355469 218.90625 C 1254.417969 219.308594 1254.433594 219.578125 1254.496094 219.824219 C 1255.566406 224.117188 1256.648438 228.414062 1257.691406 232.722656 C 1258.53125 236.164062 1259.328125 239.621094 1260.128906 243.066406 C 1260.835938 246.132812 1262.140625 248.921875 1264.019531 251.4375 C 1265.089844 252.855469 1266.148438 254.285156 1267.242188 255.667969 C 1272.230469 261.910156 1277.757812 267.675781 1283.09375 273.605469 C 1284.445312 275.128906 1285.695312 276.742188 1286.996094 278.300781 C 1287.253906 278.613281 1287.550781 278.894531 1287.796875 279.152344 C 1288.839844 278.703125 1289.265625 277.875 1289.820312 277.207031 C 1291.300781 275.4375 1292.730469 273.621094 1294.203125 271.851562 C 1294.703125 271.246094 1295.257812 270.640625 1295.890625 270.175781 C 1296.367188 269.828125 1296.984375 269.609375 1297.578125 269.480469 C 1297.9375 269.402344 1298.3125 269.441406 1298.621094 269.632812 L 1300.195312 267.765625 C 1301.042969 268.550781 1301.933594 269.273438 1302.914062 269.90625 C 1303.003906 269.800781 1303.09375 269.710938 1303.195312 269.632812 C 1303.660156 269.300781 1304.175781 269.003906 1304.703125 268.769531 C 1304.136719 268.292969 1303.597656 267.75 1302.976562 267.273438 Z M 1291.933594 267.363281 C 1290.65625 270.175781 1288.699219 272.433594 1286.148438 274.148438 C 1285.941406 274.289062 1285.542969 274.160156 1285.207031 274.148438 C 1285.246094 272.898438 1286.082031 272.265625 1286.574219 271.453125 C 1287.679688 269.609375 1289.238281 268.136719 1290.773438 266.667969 C 1290.980469 266.476562 1291.480469 266.359375 1291.714844 266.476562 C 1291.894531 266.550781 1292.035156 267.132812 1291.933594 267.363281 Z M 1296.082031 264.023438 C 1295.65625 264.074219 1295.167969 264.140625 1294.792969 263.984375 C 1294.058594 263.6875 1293.324219 263.328125 1292.707031 262.835938 C 1291.390625 261.804688 1290.078125 260.734375 1288.878906 259.5625 C 1285.207031 255.949219 1281.933594 251.992188 1278.851562 247.863281 C 1277.203125 245.65625 1275.851562 243.269531 1274.613281 240.808594 C 1271.957031 235.507812 1269.277344 230.207031 1266.625 224.90625 C 1266.222656 224.117188 1265.851562 223.304688 1265.617188 222.46875 C 1265.542969 222.195312 1265.964844 221.785156 1266.160156 221.433594 C 1266.558594 221.5625 1266.855469 221.578125 1267.046875 221.71875 C 1267.332031 221.925781 1267.578125 222.183594 1267.785156 222.46875 C 1270.59375 226.324219 1273.660156 230.023438 1275.734375 234.382812 C 1275.8125 234.539062 1275.914062 234.695312 1275.992188 234.847656 C 1279.238281 242.472656 1284.421875 248.753906 1289.882812 254.828125 C 1291.664062 256.800781 1293.453125 258.773438 1295.195312 260.785156 C 1295.761719 261.445312 1296.210938 262.21875 1296.675781 262.980469 C 1296.804688 263.1875 1296.675781 263.546875 1296.457031 263.792969 C 1296.339844 263.921875 1296.210938 264.011719 1296.082031 264.023438 Z M 1296.082031 264.023438 " fill-opacity="1" fill-rule="nonzero"/><path fill="#a7a9ac" d="M 1268.390625 207.929688 C 1269.496094 207.117188 1270.644531 206.355469 1271.738281 205.53125 C 1272.472656 205.957031 1273.054688 205.480469 1273.59375 205.054688 C 1274.292969 204.511719 1274.9375 203.894531 1275.617188 203.328125 C 1276.082031 202.9375 1276.558594 202.578125 1277.125 202.140625 C 1278.53125 203.273438 1279.535156 204.601562 1280.632812 205.996094 C 1280.464844 206.925781 1280.359375 207.890625 1280.128906 208.832031 C 1279.292969 212.214844 1279.109375 212.859375 1274.730469 213.542969 C 1274.640625 213.554688 1274.550781 213.554688 1274.457031 213.566406 C 1273.3125 213.722656 1272.421875 213.375 1271.6875 212.417969 C 1270.835938 211.308594 1270 210.148438 1268.660156 209.59375 C 1268.660156 209.234375 1268.699219 208.960938 1268.660156 208.703125 C 1268.582031 208.394531 1268.492188 208.125 1268.390625 207.929688 Z M 1310.59375 250.957031 C 1310.734375 249.65625 1310.621094 248.3125 1310.621094 247.074219 C 1309.976562 246.46875 1309.34375 245.980469 1308.828125 245.398438 C 1308.300781 244.804688 1307.863281 244.136719 1307.421875 243.464844 C 1305.980469 241.234375 1304.601562 238.964844 1303.105469 236.757812 C 1297.707031 228.785156 1291.519531 221.511719 1284.226562 215.207031 C 1283.722656 214.765625 1283.3125 214.097656 1282.679688 214.109375 C 1281.160156 215.140625 1279.78125 216.070312 1278.335938 217.0625 C 1278.542969 217.332031 1278.722656 217.644531 1278.96875 217.847656 C 1281.792969 220.234375 1283.816406 223.265625 1285.617188 226.425781 C 1291.855469 237.375 1297.191406 248.777344 1302.28125 260.296875 C 1302.9375 261.78125 1303.261719 263.328125 1303.53125 264.902344 C 1303.660156 265.625 1303.582031 266.320312 1303.234375 266.964844 C 1303.171875 267.082031 1303.082031 267.195312 1302.976562 267.273438 C 1303.597656 267.75 1304.136719 268.292969 1304.730469 268.796875 C 1304.921875 268.707031 1305.128906 268.628906 1305.335938 268.5625 C 1306.25 268.265625 1307.28125 268.253906 1308.183594 267.917969 C 1308.453125 267.816406 1308.726562 267.738281 1308.996094 267.675781 C 1309.40625 267.054688 1309.757812 266.382812 1310.050781 265.6875 C 1309.949219 265.699219 1309.847656 265.6875 1309.757812 265.660156 C 1309.445312 265.558594 1309.074219 265.042969 1309.058594 264.695312 C 1309.046875 263.546875 1309.148438 262.398438 1309.292969 261.25 C 1309.71875 257.808594 1310.21875 254.390625 1310.59375 250.957031 Z M 1310.59375 250.957031 " fill-opacity="1" fill-rule="nonzero"/><path fill="#fdd2b9" d="M 1278.660156 160.054688 C 1279.871094 158.726562 1280.632812 157.140625 1281.121094 155.398438 C 1281.648438 153.5 1281.417969 151.707031 1280.59375 149.96875 C 1279.625 147.941406 1277.835938 146.921875 1275.617188 147.207031 C 1274.921875 147.296875 1274.226562 147.492188 1273.558594 147.710938 C 1272.472656 148.070312 1271.855469 148.714844 1271.714844 150.007812 C 1271.289062 153.964844 1270.707031 157.925781 1270.15625 161.871094 C 1269.871094 163.898438 1269.277344 165.84375 1268.570312 167.765625 C 1267.964844 169.390625 1266.46875 169.328125 1265.59375 168.515625 C 1265.027344 167.984375 1264.585938 167.277344 1264.253906 166.582031 C 1263.464844 164.890625 1262.730469 163.175781 1262.0625 161.445312 C 1260.0625 156.3125 1257.640625 151.386719 1255.191406 146.460938 C 1253.453125 142.976562 1251.714844 139.496094 1249.972656 136.011719 C 1248.609375 136.011719 1247.28125 135.933594 1245.964844 136.023438 C 1240.464844 136.398438 1235.089844 137.480469 1229.742188 138.734375 C 1221.363281 140.695312 1213.257812 143.570312 1205.113281 146.292969 C 1201.507812 147.492188 1197.976562 148.9375 1194.25 149.800781 C 1191.570312 150.417969 1188.890625 150.972656 1186.117188 151.023438 C 1185.785156 151.039062 1185.4375 151.128906 1184.945312 151.207031 C 1184.855469 151.734375 1184.714844 152.238281 1184.6875 152.742188 C 1184.378906 158.777344 1184.351562 164.800781 1184.960938 170.824219 C 1185.140625 172.679688 1185.140625 174.550781 1185.410156 176.394531 C 1186.015625 180.601562 1186.839844 184.777344 1187.382812 188.996094 C 1187.753906 191.820312 1188.773438 194.21875 1190.746094 196.296875 C 1192.085938 197.703125 1193.207031 199.316406 1194.445312 200.824219 C 1199.417969 206.898438 1205.644531 211.386719 1212.550781 214.984375 C 1215.796875 216.675781 1219.316406 217.566406 1222.847656 218.441406 C 1230.191406 220.261719 1237.433594 219.605469 1244.652344 217.707031 C 1250.167969 216.261719 1255.386719 214.097656 1260.375 211.335938 C 1261.996094 210.433594 1263.59375 209.464844 1265.207031 208.539062 C 1265.746094 208.226562 1266.277344 207.890625 1266.828125 207.632812 C 1267.550781 207.285156 1268.066406 207.402344 1268.375 207.957031 C 1269.484375 207.144531 1270.632812 206.382812 1271.726562 205.558594 C 1271.714844 205.542969 1271.6875 205.542969 1271.675781 205.53125 C 1271.160156 205.210938 1271.25 204.371094 1271.921875 203.378906 C 1272.320312 202.796875 1272.785156 202.253906 1273.234375 201.714844 C 1275.207031 199.316406 1277.164062 196.917969 1279.136719 194.515625 C 1279.679688 193.859375 1280.230469 193.1875 1280.773438 192.53125 C 1280.554688 191.125 1280.605469 189.65625 1280.386719 188.25 C 1280.21875 188.402344 1280 188.53125 1279.714844 188.585938 C 1279.085938 188.726562 1278.492188 188.363281 1278.15625 187.4375 C 1277.769531 186.351562 1277.421875 185.242188 1277.269531 184.109375 C 1276.519531 178.9375 1275.835938 173.75 1275.167969 168.566406 C 1275.089844 167.972656 1275.15625 167.339844 1275.296875 166.746094 C 1275.386719 166.347656 1275.285156 166.101562 1275.101562 165.78125 C 1274.421875 164.542969 1274.445312 164.453125 1275.320312 163.535156 C 1276.441406 162.351562 1277.589844 161.242188 1278.660156 160.054688 Z M 1199.519531 165.546875 C 1197.113281 165.792969 1195.347656 166.953125 1194.519531 169.300781 C 1194.171875 170.292969 1193.914062 171.339844 1193.621094 172.34375 C 1193.4375 172.9375 1193.308594 173.558594 1193.039062 174.101562 C 1192.910156 174.34375 1192.484375 174.601562 1192.214844 174.578125 C 1191.929688 174.550781 1191.558594 174.265625 1191.429688 173.996094 C 1191.234375 173.621094 1191.105469 173.132812 1191.171875 172.71875 C 1191.441406 170.976562 1191.597656 169.171875 1192.148438 167.523438 C 1193.425781 163.71875 1196.46875 162.054688 1200.21875 161.574219 C 1201.867188 161.371094 1203.347656 162.039062 1204.417969 163.394531 C 1205.089844 164.246094 1204.597656 165.472656 1203.503906 165.601562 C 1202.808594 165.675781 1202.097656 165.613281 1201.390625 165.613281 C 1201.390625 165.585938 1201.390625 165.5625 1201.390625 165.523438 C 1200.757812 165.535156 1200.128906 165.484375 1199.519531 165.546875 Z M 1213.851562 187.023438 C 1213.515625 188.015625 1213.105469 189.023438 1212.511719 189.875 C 1210.515625 192.722656 1207.1875 193.175781 1204.40625 191.074219 C 1202.5 189.628906 1201.429688 187.605469 1200.667969 185.410156 C 1200.5 184.90625 1200.527344 184.351562 1201.042969 183.980469 C 1201.390625 183.722656 1201.945312 183.929688 1202.382812 184.484375 C 1202.976562 185.242188 1203.476562 186.109375 1204.160156 186.777344 C 1204.90625 187.511719 1205.757812 188.171875 1206.660156 188.6875 C 1207.757812 189.304688 1208.695312 189.023438 1209.46875 188.054688 C 1210.269531 187.050781 1210.578125 185.851562 1210.667969 184.597656 C 1210.734375 183.632812 1210.679688 182.652344 1210.679688 181.683594 C 1210.695312 181.683594 1210.71875 181.683594 1210.734375 181.683594 C 1210.734375 180.882812 1210.71875 180.097656 1210.734375 179.296875 C 1210.746094 178.949219 1210.773438 178.589844 1210.835938 178.238281 C 1210.964844 177.582031 1211.519531 176.988281 1212.023438 176.964844 C 1212.601562 176.9375 1213.105469 177.234375 1213.324219 177.722656 C 1213.722656 178.601562 1214.160156 179.515625 1214.265625 180.445312 C 1214.496094 182.652344 1214.574219 184.882812 1213.851562 187.023438 Z M 1233.710938 148.304688 C 1233.207031 149.027344 1232.820312 149.824219 1232.371094 150.585938 C 1232.125 150.988281 1231.75 151.359375 1231.3125 151.140625 C 1230.976562 150.972656 1230.773438 150.507812 1230.539062 150.148438 C 1230.449219 150.019531 1230.488281 149.800781 1230.460938 149.632812 C 1230.398438 147.015625 1232.433594 144.046875 1235.011719 143.003906 C 1238.789062 141.480469 1243.492188 142.835938 1246.054688 145.414062 C 1246.648438 146.007812 1246.957031 146.703125 1246.917969 147.554688 C 1246.867188 148.742188 1245.785156 149.542969 1244.703125 149.066406 C 1243.980469 148.753906 1243.324219 148.277344 1242.679688 147.828125 C 1241.492188 147 1240.207031 146.484375 1238.789062 146.238281 C 1236.648438 145.878906 1234.949219 146.535156 1233.710938 148.304688 Z M 1250.023438 201.109375 C 1249.613281 202.0625 1249.058594 203.015625 1248.375 203.804688 C 1246.984375 205.390625 1244.894531 205.765625 1243.066406 204.707031 C 1240.464844 203.199219 1238.644531 200.925781 1237.371094 198.21875 C 1237.292969 198.0625 1237.242188 197.859375 1237.292969 197.703125 C 1237.394531 197.394531 1237.511719 197.046875 1237.730469 196.839844 C 1237.847656 196.734375 1238.285156 196.800781 1238.453125 196.929688 C 1239.058594 197.433594 1239.601562 198.039062 1240.207031 198.554688 C 1241.351562 199.519531 1242.5 200.488281 1243.699219 201.40625 C 1244.03125 201.664062 1244.496094 201.753906 1244.84375 201.894531 C 1246.160156 201.339844 1246.507812 200.21875 1246.816406 199.109375 C 1247.242188 197.5625 1247.34375 195.972656 1247.28125 194.363281 C 1247.242188 193.394531 1247.292969 192.414062 1247.359375 191.449219 C 1247.394531 190.878906 1247.746094 190.453125 1248.3125 190.300781 C 1248.890625 190.144531 1249.378906 190.390625 1249.714844 190.839844 C 1250.023438 191.265625 1250.320312 191.742188 1250.4375 192.246094 C 1251.144531 195.226562 1251.261719 198.21875 1250.023438 201.109375 Z M 1250.296875 172.707031 C 1250.0625 173.082031 1249.820312 173.453125 1249.535156 173.789062 C 1246.765625 177.207031 1243.027344 177.105469 1240.4375 173.570312 C 1239.058594 171.6875 1238.183594 169.574219 1237.382812 167.417969 C 1237.320312 167.265625 1237.292969 167.058594 1237.34375 166.902344 C 1237.421875 166.671875 1237.539062 166.375 1237.71875 166.285156 C 1237.910156 166.191406 1238.273438 166.21875 1238.453125 166.335938 C 1238.800781 166.582031 1239.109375 166.914062 1239.394531 167.25 C 1240.257812 168.257812 1241.09375 169.289062 1241.945312 170.308594 C 1242.175781 170.578125 1242.382812 170.863281 1242.628906 171.121094 C 1244.417969 173.054688 1245.65625 172.9375 1246.945312 170.683594 C 1247.578125 169.585938 1247.886719 168.398438 1247.910156 167.132812 C 1247.9375 166.078125 1247.9375 165.007812 1247.949219 163.949219 C 1247.964844 163.511719 1247.949219 163.058594 1248.039062 162.632812 C 1248.234375 161.703125 1249.34375 161.304688 1250.128906 161.832031 C 1250.992188 162.414062 1251.457031 163.265625 1251.609375 164.246094 C 1251.753906 165.109375 1251.777344 166 1251.855469 166.890625 C 1251.828125 168.964844 1251.402344 170.925781 1250.296875 172.707031 Z M 1302.203125 271 C 1302.863281 272.265625 1303.519531 273.515625 1304.265625 274.949219 C 1303.429688 277.375 1302.320312 279.824219 1300.269531 281.796875 C 1298.363281 283.628906 1296.496094 285.539062 1295.234375 287.910156 C 1295.207031 287.960938 1295.078125 287.976562 1294.882812 288.054688 C 1293.402344 285.886719 1292.089844 283.601562 1290.8125 281.191406 C 1291.199219 280.738281 1291.519531 280.328125 1291.867188 279.953125 C 1293.726562 277.929688 1295.617188 275.929688 1297.4375 273.878906 C 1298.082031 273.15625 1298.609375 272.332031 1299.113281 271.503906 C 1299.40625 271.027344 1299.382812 270.5 1299.019531 270.007812 C 1298.90625 269.867188 1298.789062 269.75 1298.648438 269.660156 L 1300.21875 267.789062 C 1301.070312 268.578125 1301.960938 269.300781 1302.9375 269.929688 C 1302.695312 270.214844 1302.5 270.601562 1302.203125 271 Z M 1310.902344 297.867188 C 1311.40625 296.925781 1312.21875 296.242188 1312.875 295.429688 C 1313.363281 294.8125 1313.839844 294.179688 1314.292969 293.523438 C 1314.355469 293.429688 1314.28125 293.171875 1314.175781 293.070312 C 1314.074219 292.96875 1313.839844 292.851562 1313.726562 292.902344 C 1313.324219 293.082031 1312.925781 293.289062 1312.605469 293.558594 C 1311.445312 294.515625 1310.296875 295.496094 1309.164062 296.488281 C 1308.46875 297.09375 1307.785156 297.199219 1307.050781 296.617188 C 1306.960938 295.945312 1307.539062 295.726562 1307.835938 295.351562 C 1308.542969 294.449219 1309.304688 293.574219 1309.976562 292.644531 C 1310.144531 292.425781 1310.066406 292.039062 1310.128906 291.484375 C 1308.507812 292.246094 1307.347656 293.199219 1306.261719 294.207031 C 1304.882812 295.46875 1303.363281 295.3125 1301.777344 295.003906 C 1301.121094 294.875 1300.863281 294.011719 1301.339844 293.535156 C 1301.714844 293.160156 1302.128906 292.824219 1302.539062 292.476562 C 1303.222656 291.910156 1303.929688 291.378906 1304.613281 290.8125 C 1305.632812 289.976562 1305.914062 289.457031 1305.515625 289.199219 C 1304.757812 288.699219 1304.203125 289.328125 1303.632812 289.679688 C 1302.28125 290.503906 1300.953125 291.378906 1299.550781 292.285156 C 1298.390625 292.039062 1297.65625 291.238281 1297.113281 290.296875 C 1299.214844 288.054688 1301.160156 285.886719 1303.210938 283.824219 C 1305.632812 281.371094 1306.109375 278.238281 1306.484375 275.050781 C 1306.535156 274.5625 1306.316406 274.007812 1306.136719 273.53125 C 1305.914062 272.976562 1305.59375 272.460938 1305.21875 271.761719 C 1307.164062 271.066406 1308.90625 270.152344 1310.914062 270.523438 C 1315.273438 271.351562 1319.574219 272.394531 1323.609375 274.316406 C 1324.960938 274.960938 1326.277344 275.695312 1327.410156 276.753906 C 1325.890625 281.5 1324.382812 286.195312 1322.808594 291.121094 C 1319.484375 293.367188 1316.03125 295.84375 1312.230469 297.765625 C 1311.871094 297.933594 1311.445312 298.242188 1310.902344 297.867188 Z M 1310.902344 297.867188 " fill-opacity="1" fill-rule="nonzero"/><path fill="#4d4d4f" d="M 1356.433594 385.703125 C 1356.457031 385.703125 1356.484375 385.703125 1356.507812 385.714844 C 1356.445312 385.949219 1356.378906 386.179688 1356.316406 386.414062 C 1356.148438 386.257812 1355.941406 386.140625 1355.699219 386.050781 C 1354.796875 385.730469 1354.230469 386.542969 1353.507812 386.800781 C 1346.730469 389.328125 1339.730469 390.011719 1332.578125 389.1875 C 1330.554688 388.953125 1328.558594 388.476562 1326.675781 387.675781 C 1326.121094 387.445312 1325.605469 387.109375 1325.054688 386.800781 C 1325.015625 386.375 1324.949219 386.027344 1324.949219 385.691406 C 1325.039062 375.308594 1325.179688 364.925781 1325.21875 354.542969 C 1325.257812 344.597656 1324.820312 334.667969 1324.382812 324.746094 C 1324.316406 323.238281 1324.136719 321.742188 1324.046875 320.234375 C 1323.984375 319.238281 1323.75 318.296875 1323.222656 317.460938 C 1322.566406 316.390625 1321.210938 316.429688 1320.683594 317.539062 C 1320.464844 318 1320.296875 318.542969 1320.257812 319.058594 C 1320.179688 319.9375 1320.167969 320.828125 1320.195312 321.714844 C 1320.386719 327.570312 1320.671875 333.414062 1320.789062 339.269531 C 1320.980469 348.855469 1321.03125 358.4375 1321.199219 368.019531 C 1321.300781 373.605469 1321.507812 379.191406 1321.664062 384.773438 C 1321.664062 384.929688 1321.546875 385.097656 1321.445312 385.394531 C 1319.78125 385.960938 1318.03125 386.554688 1316.160156 386.683594 C 1314.214844 386.824219 1312.269531 386.941406 1310.324219 387.058594 C 1306.210938 387.316406 1302.191406 386.710938 1298.246094 385.546875 C 1296.90625 385.148438 1295.527344 384.761719 1294.445312 383.78125 C 1294.625 380.699219 1294.792969 377.695312 1294.976562 374.6875 C 1295.128906 371.941406 1295.398438 369.195312 1295.425781 366.445312 C 1295.527344 357.390625 1294.988281 348.351562 1294.5625 339.308594 C 1294.332031 334.34375 1293.996094 329.390625 1293.710938 324.425781 C 1293.46875 319.910156 1293.273438 315.382812 1293.003906 310.871094 C 1292.769531 307.15625 1292.449219 303.441406 1292.152344 299.726562 C 1291.945312 297.070312 1291.6875 294.425781 1291.480469 291.765625 C 1291.457031 291.394531 1291.25 290.890625 1291.816406 290.683594 C 1292.527344 291.070312 1293.222656 291.445312 1293.90625 291.84375 C 1294.203125 292.011719 1294.574219 292.179688 1294.730469 292.449219 C 1295.644531 294.011719 1297.0625 294.796875 1298.710938 294.992188 C 1299.769531 297.753906 1300.4375 298.203125 1303.082031 298.085938 C 1303.503906 298.074219 1303.945312 298.035156 1304.125 298.023438 C 1304.976562 298.628906 1305.566406 299.261719 1306.277344 299.492188 C 1307.074219 299.75 1307.976562 299.648438 1308.90625 299.699219 C 1309.847656 301.144531 1311.226562 301.453125 1312.835938 301.027344 C 1313.777344 300.78125 1314.742188 300.550781 1315.59375 300.097656 C 1317.628906 299.027344 1319.589844 297.816406 1321.597656 296.679688 C 1324.652344 294.953125 1326.316406 292.21875 1327.230469 288.941406 C 1327.628906 287.5 1327.914062 286.015625 1328.261719 284.542969 C 1328.726562 282.597656 1328.878906 280.585938 1329.539062 278.703125 C 1331.484375 279.023438 1331.832031 278.777344 1331.933594 277.207031 C 1331.972656 276.597656 1331.921875 275.914062 1332.191406 275.414062 C 1333.492188 272.898438 1334.691406 270.355469 1335.492188 267.570312 C 1336.007812 267.480469 1336.433594 267.417969 1336.855469 267.339844 C 1338.867188 267.027344 1340.902344 266.824219 1342.886719 266.410156 C 1348.339844 265.25 1353.777344 264 1359.230469 262.785156 C 1359.628906 262.695312 1360.054688 262.695312 1360.609375 262.644531 C 1361.238281 265.09375 1361.871094 267.390625 1362.398438 269.710938 C 1362.65625 270.835938 1362.796875 271.996094 1362.824219 273.128906 C 1363.03125 287.332031 1362.964844 301.53125 1362.21875 315.707031 C 1362.0625 318.722656 1361.910156 321.730469 1361.664062 324.734375 C 1361.253906 329.6875 1360.839844 334.640625 1360.285156 339.566406 C 1359.382812 347.757812 1358.378906 355.949219 1357.398438 364.136719 C 1356.804688 369.066406 1356.160156 373.992188 1355.621094 378.917969 C 1355.441406 380.582031 1355.453125 382.285156 1355.453125 383.976562 C 1355.414062 385.058594 1355.789062 385.574219 1356.433594 385.703125 Z M 1284.550781 113.132812 C 1278.015625 104.617188 1269.84375 98.3125 1259.753906 94.597656 C 1252.035156 91.757812 1244.058594 91 1235.925781 92.003906 C 1225.566406 93.292969 1215.695312 96.261719 1206.234375 100.722656 C 1199.40625 103.949219 1192.820312 107.558594 1186.542969 111.765625 C 1185.953125 112.152344 1185.359375 112.578125 1184.703125 112.820312 C 1184.351562 112.949219 1183.8125 112.835938 1183.476562 112.613281 C 1183.230469 112.460938 1183.101562 112.226562 1183.066406 111.984375 C 1182.109375 112.730469 1181.171875 113.503906 1180.28125 114.316406 C 1180.460938 114.460938 1180.617188 114.640625 1180.769531 114.796875 C 1180.953125 114.988281 1180.914062 115.414062 1180.898438 115.722656 C 1180.898438 115.828125 1180.65625 115.917969 1180.511719 116.019531 C 1180.023438 116.058594 1179.507812 115.722656 1179.238281 115.273438 C 1178.890625 115.609375 1178.554688 115.941406 1178.21875 116.292969 C 1178.914062 116.898438 1179.367188 117.710938 1179.597656 118.675781 C 1179.664062 118.933594 1179.40625 119.386719 1179.160156 119.542969 C 1178.929688 119.695312 1178.464844 119.683594 1178.195312 119.554688 C 1177.421875 119.191406 1177.164062 118.433594 1176.917969 117.683594 C 1176.183594 118.507812 1175.488281 119.375 1174.84375 120.261719 C 1175.308594 120.484375 1175.628906 121.011719 1175.527344 121.578125 C 1175.398438 122.261719 1175.164062 122.945312 1174.894531 123.589844 C 1173.773438 126.210938 1172.84375 128.878906 1172.238281 131.664062 C 1170.5 139.6875 1169.753906 147.761719 1170.617188 155.976562 C 1171.429688 163.703125 1173.128906 171.183594 1176.042969 178.382812 C 1177.277344 181.425781 1178.773438 184.351562 1180.550781 187.113281 C 1181.828125 189.101562 1183.078125 190.390625 1185.074219 191.78125 C 1184.996094 191.152344 1184.996094 190.648438 1184.882812 190.183594 C 1184.082031 186.90625 1183.117188 183.667969 1182.496094 180.367188 C 1181.828125 176.796875 1181.351562 173.183594 1181.015625 169.574219 C 1180.679688 165.949219 1180.617188 162.3125 1180.4375 158.671875 C 1180.320312 156.339844 1180.785156 154.082031 1181.414062 151.863281 C 1181.632812 151.101562 1182.035156 150.417969 1181.917969 149.554688 C 1181.828125 148.859375 1182.355469 148.394531 1183 148.238281 C 1183.863281 148.03125 1184.738281 147.890625 1185.617188 147.773438 C 1190.203125 147.117188 1194.597656 145.800781 1198.941406 144.242188 C 1207.613281 141.132812 1216.234375 137.894531 1225.179688 135.625 C 1230.0625 134.375 1234.972656 133.1875 1239.984375 132.464844 C 1242.820312 132.066406 1245.628906 132.015625 1248.464844 132.207031 C 1249.160156 132.257812 1249.859375 132.476562 1250.527344 132.683594 C 1251.339844 132.929688 1251.828125 133.496094 1252.085938 134.335938 C 1252.34375 135.171875 1252.691406 136 1253.132812 136.746094 C 1255.8125 141.339844 1258.492188 145.945312 1261.238281 150.496094 C 1263.132812 153.628906 1264.382812 157.035156 1265.796875 160.390625 C 1266.070312 161.019531 1266.121094 161.78125 1266.957031 162.246094 C 1267.175781 159.976562 1267.421875 157.796875 1267.589844 155.617188 C 1267.769531 153.296875 1268.09375 151.023438 1269.316406 149 C 1269.40625 148.84375 1269.511719 148.691406 1269.550781 148.523438 C 1270.464844 145.105469 1273.144531 144.113281 1276.210938 143.867188 C 1279.535156 143.609375 1282.074219 144.988281 1283.582031 148.03125 C 1285.851562 152.613281 1285.140625 156.996094 1282.511719 161.164062 C 1281.121094 163.367188 1279.316406 165.175781 1276.648438 166.179688 C 1279.265625 170.140625 1279.78125 174.601562 1280.359375 179.039062 C 1280.59375 180.792969 1280.863281 182.546875 1281.003906 184.316406 C 1281.082031 185.269531 1280.953125 186.25 1280.835938 187.21875 C 1280.785156 187.605469 1280.644531 187.953125 1280.375 188.195312 C 1280.59375 189.601562 1280.542969 191.074219 1280.761719 192.480469 C 1281.792969 191.226562 1282.824219 189.976562 1283.878906 188.75 C 1286.03125 186.25 1287.898438 183.566406 1289.394531 180.625 C 1293.234375 173.042969 1295.824219 165.046875 1296.703125 156.585938 C 1298.402344 140.527344 1294.421875 125.992188 1284.550781 113.132812 Z M 1349.152344 392.472656 C 1343.765625 393.816406 1338.289062 393.984375 1332.785156 393.429688 C 1329.859375 393.132812 1327.023438 392.460938 1324.445312 390.953125 C 1324.226562 390.824219 1323.957031 390.757812 1323.570312 390.617188 C 1321.019531 392.332031 1318.90625 394.488281 1317.476562 397.519531 C 1318.121094 397.90625 1318.582031 398.292969 1319.136719 398.484375 C 1320.992188 399.128906 1322.914062 399.414062 1324.871094 399.453125 C 1331.910156 399.632812 1338.839844 398.742188 1345.671875 397.15625 C 1348.160156 396.574219 1350.582031 395.660156 1352.964844 394.757812 C 1354.511719 394.175781 1354.628906 393.789062 1354.449219 392.085938 C 1354.410156 391.738281 1354.292969 391.402344 1354.175781 390.863281 C 1352.335938 391.46875 1350.773438 392.0625 1349.152344 392.472656 Z M 1317.140625 391.03125 C 1316.457031 390.992188 1316.03125 390.925781 1315.621094 390.941406 C 1313.855469 391.03125 1312.089844 391.171875 1310.324219 391.25 C 1305.117188 391.496094 1300.105469 390.796875 1295.425781 388.308594 C 1295.128906 388.152344 1294.769531 388.101562 1294.472656 388.011719 C 1292.4375 389.132812 1290.839844 390.644531 1289.304688 392.242188 C 1289.058594 392.5 1288.839844 392.785156 1288.648438 393.066406 C 1287.796875 394.320312 1287.964844 395.207031 1289.253906 395.917969 C 1289.949219 396.292969 1290.695312 396.574219 1291.457031 396.808594 C 1293.246094 397.375 1295.105469 397.464844 1296.960938 397.492188 C 1302.835938 397.582031 1308.597656 396.9375 1314.28125 394.886719 C 1315.128906 393.726562 1316.058594 392.472656 1317.140625 391.03125 Z M 1317.140625 391.03125 " fill-opacity="1" fill-rule="nonzero"/><g clip-path="url(#62ac0d9070)"><path fill="#cfb4d4" d="M -192.179688 -79.992188 L -235.679688 -4.636719 L -322.984375 -4.636719 L -368.320312 73.9375 L -322.984375 152.359375 L -236.597656 152.359375 L -192.179688 229.25 L -104.875 229.25 L -62.601562 302.464844 L -106.253906 378.128906 L -61.835938 455.171875 L -106.253906 532.210938 L -60.914062 610.632812 L 29.757812 610.632812 L 75.097656 532.210938 L 158.265625 532.210938 L 203.601562 610.632812 L 294.277344 610.632812 L 339.613281 532.210938 L 294.277344 453.792969 L 207.738281 453.792969 L 164.085938 378.128906 L 207.738281 302.464844 L 162.402344 224.042969 L 73.410156 224.042969 L 30.832031 150.371094 L 74.945312 73.9375 L 29.605469 -4.480469 L -58.15625 -4.480469 L -101.65625 -79.839844 L -192.179688 -79.839844 Z M -319.917969 147.152344 L -362.191406 73.9375 L -319.917969 0.726562 L -236.136719 0.726562 L -193.558594 74.550781 L -235.523438 147.152344 Z M -231.390625 150.828125 L -189.117188 77.617188 L -104.566406 77.617188 L -62.292969 150.828125 L -104.566406 224.042969 L -189.117188 224.042969 Z M -57.851562 451.339844 L -100.125 378.128906 L -58.15625 305.375 L 26.847656 305.375 L 68.816406 378.128906 L 26.695312 451.339844 Z M -57.851562 605.425781 L -100.125 532.210938 L -57.851562 459 L 26.695312 459 L 68.96875 532.210938 L 26.695312 605.425781 Z M 291.0625 459 L 333.335938 532.210938 L 291.0625 605.425781 L 206.511719 605.425781 L 164.238281 532.210938 L 206.511719 459 Z M 159.339844 526.851562 L 74.789062 526.851562 L 32.515625 453.636719 L 74.484375 380.882812 L 159.492188 380.882812 L 201.457031 453.636719 Z M 159.339844 229.25 L 201.613281 302.464844 L 159.644531 375.21875 L 74.636719 375.21875 L 32.667969 302.464844 L 74.945312 229.25 Z M 68.96875 226.800781 L 27.003906 299.554688 L -58.003906 299.554688 L -99.972656 226.800781 L -57.699219 153.585938 L 26.847656 153.585938 Z M 68.96875 73.9375 L 26.695312 147.152344 L -57.851562 147.152344 L -99.972656 74.246094 L -57.546875 0.726562 L 26.542969 0.726562 Z M -104.566406 -74.632812 L -62.445312 -1.726562 L -104.875 71.796875 L -188.347656 71.796875 L -230.929688 -2.03125 L -188.960938 -74.632812 Z M -104.566406 -74.632812 " fill-opacity="1" fill-rule="nonzero"/></g></svg>